<?xml version="1.0" encoding="iso-8859-1"?>
<!-- Generator: Adobe Illustrator 18.0.0, SVG Export Plug-In . SVG Version: 6.00 Build 0)  -->
<!DOCTYPE svg PUBLIC "-//W3C//DTD SVG 1.1//EN" "http://www.w3.org/Graphics/SVG/1.1/DTD/svg11.dtd">
<svg version="1.1" id="Capa_1" xmlns="http://www.w3.org/2000/svg" xmlns:xlink="http://www.w3.org/1999/xlink" x="0px" y="0px"
	 viewBox="0 0 387.359 387.359" style="enable-background:new 0 0 387.359 387.359;" xml:space="preserve">
<g>
	<path d="M322.033,222.771l-2.604-0.855l-0.678-2.654c-7.584-29.639-34.283-50.338-64.926-50.338
		c-29.184,0-55.539,19.473-64.092,47.354l-1.207,3.934l-4.094-0.428c-2.342-0.246-4.721-0.369-7.07-0.369
		c-36.963,0-67.033,30.07-67.033,67.033c0,36.961,30.07,67.033,67.033,67.033H301.02c36.965,0,67.039-30.072,67.039-67.033
		C368.059,257.418,349.563,231.83,322.033,222.771z"/>
	<path d="M98.053,286.447c0-0.92,0.037-1.83,0.068-2.74c-33.822-5.514-53.484-17.885-53.484-25.451c0-2.408,2.02-5.301,5.816-8.307
		c14.258,6.715,32.102,11.348,50.914,13.844c5.746-19.242,18.607-35.438,35.527-45.52c-0.865,0.008-1.721,0.025-2.596,0.025
		c-55.617,0-89.662-18.303-89.662-28.264c0-2.406,2.02-5.299,5.816-8.303c22.459,10.574,53.813,16.014,83.846,16.014
		c18.139,0,36.762-1.998,53.631-5.9c4.258-6.357,9.436-12.117,15.4-17.047c12.393-10.244,27.672-16.461,43.625-17.855
		c1.059-2.219,1.852-4.525,2.346-6.924l-0.004-28.203c0-8.541-3.59-16.105-9.807-22.672c5.047-5.15,8.486-10.93,9.811-17.342
		l-0.004-28.207C249.297,18.781,190.047,0,134.299,0C78.551,0,19.301,18.781,19.301,53.602l0.025,27.611l0.064,0.59
		c1.322,6.391,4.738,12.152,9.746,17.285c-6.24,6.584-9.836,14.17-9.836,22.73l0.025,27.615l0.064,0.586
		c1.322,6.393,4.738,12.152,9.746,17.287c-6.24,6.586-9.836,14.168-9.836,22.73l0.025,27.613l0.064,0.59
		c1.322,6.393,4.738,12.152,9.746,17.287c-6.24,6.582-9.836,14.166-9.836,22.73l0.025,27.613l0.064,0.586
		c5.609,27.174,48.656,43.105,94.041,46.855C103.773,320.174,98.053,303.969,98.053,286.447z M134.299,25.338
		c55.615,0,89.66,18.297,89.66,28.258c0,9.969-34.045,28.264-89.66,28.264c-55.617,0-89.662-18.295-89.662-28.264
		C44.637,43.635,78.682,25.338,134.299,25.338z M50.453,113.514c22.459,10.576,53.813,16.012,83.846,16.012
		c30.014,0,61.385-5.43,83.867-15.992c3.777,2.996,5.793,5.881,5.793,8.283c0,9.965-34.045,28.262-89.66,28.262
		c-55.617,0-89.662-18.297-89.662-28.262C44.637,119.408,46.656,116.516,50.453,113.514z"/>
	<path d="M113.127,365.199c-9.672,3.365-20.076,2.762-29.295-1.697c-9.219-4.459-16.148-12.242-19.514-21.916
		c-1.814-5.215-7.512-7.977-12.73-6.158c-5.217,1.814-7.975,7.514-6.158,12.73c5.119,14.719,15.664,26.561,29.693,33.348
		c8.043,3.891,16.68,5.854,25.359,5.854c6.457,0,12.939-1.086,19.217-3.272c5.217-1.814,7.975-7.514,6.158-12.73
		C124.043,366.143,118.348,363.381,113.127,365.199z"/>
	<path d="M272.115,136.533c21.139,0.174,38.197,17.516,38.021,38.654c-0.045,5.523,4.397,10.037,9.918,10.082
		c0.029,0,0.057,0,0.084,0c5.484,0,9.953-4.424,9.998-9.918c0.266-32.166-25.689-58.553-57.855-58.818c-0.029,0-0.057,0-0.086,0
		c-5.482,0-9.951,4.422-9.998,9.916C262.152,131.973,266.592,136.486,272.115,136.533z"/>
</g>
<g>
</g>
<g>
</g>
<g>
</g>
<g>
</g>
<g>
</g>
<g>
</g>
<g>
</g>
<g>
</g>
<g>
</g>
<g>
</g>
<g>
</g>
<g>
</g>
<g>
</g>
<g>
</g>
<g>
</g>
</svg>
