<?xml version="1.0" encoding="iso-8859-1"?>
<!-- Generator: Adobe Illustrator 18.0.0, SVG Export Plug-In . SVG Version: 6.00 Build 0)  -->
<!DOCTYPE svg PUBLIC "-//W3C//DTD SVG 1.1//EN" "http://www.w3.org/Graphics/SVG/1.1/DTD/svg11.dtd">
<svg version="1.1" id="Capa_1" xmlns="http://www.w3.org/2000/svg" xmlns:xlink="http://www.w3.org/1999/xlink" x="0px" y="0px"
	 viewBox="0 0 376 376" style="enable-background:new 0 0 376 376;" xml:space="preserve">
<g>
	<g>
		<line x1="29.758" y1="136.126" x2="346.242" y2="136.126"/>
		<line x1="29.758" y1="76.126" x2="346.242" y2="76.126"/>
	</g>
	<g>
		<path d="M366,341H20V25c0-5.523-4.477-10-10-10C4.477,15,0,19.477,0,25v326c0,5.523,4.477,10,10,10h356c5.523,0,10-4.477,10-10
			S371.523,341,366,341z"/>
		<path d="M29.758,315.126c-0.553,0-1,0.447-1,1c0,0.553,0.447,1,1,1h316.484c0.553,0,1-0.447,1-1c0-0.553-0.447-1-1-1h-2.513v-58
			h2.513c0.553,0,1-0.447,1-1c0-0.553-0.447-1-1-1h-2.513v-58h2.513c0.553,0,1-0.447,1-1c0-0.553-0.447-1-1-1h-79.861
			l-15.121-29.429l-55.124,29.429h-2.373l-29.498-59l-24.255,59H29.758c-0.553,0-1,0.447-1,1c0,0.553,0.447,1,1,1h54.573l-25.374,58
			H29.758c-0.553,0-1,0.447-1,1c0,0.553,0.447,1,1,1h28.324l-25.374,58H29.758z M139.188,197.126l-22.921,55.755l-30.943-55.755
			H139.188z M267.408,197.126h75.541l-45.27,58h-0.468L267.408,197.126z"/>
	</g>
</g>
<g>
</g>
<g>
</g>
<g>
</g>
<g>
</g>
<g>
</g>
<g>
</g>
<g>
</g>
<g>
</g>
<g>
</g>
<g>
</g>
<g>
</g>
<g>
</g>
<g>
</g>
<g>
</g>
<g>
</g>
</svg>
