<?xml version="1.0" encoding="iso-8859-1"?>
<!-- Generator: Adobe Illustrator 16.0.0, SVG Export Plug-In . SVG Version: 6.00 Build 0)  -->
<!DOCTYPE svg PUBLIC "-//W3C//DTD SVG 1.1//EN" "http://www.w3.org/Graphics/SVG/1.1/DTD/svg11.dtd">
<svg version="1.1" id="Capa_1" xmlns="http://www.w3.org/2000/svg" xmlns:xlink="http://www.w3.org/1999/xlink" x="0px" y="0px"
	 width="390px" height="390px" viewBox="0 0 390 390" style="enable-background:new 0 0 390 390;" xml:space="preserve">
<g>
	<g>
		<path d="M0,0v390h390V0H0z M305,30h55v55h-55V30z M165,30h60v55h-60V30z M95,30h60v55H95V30z M95,95h59.967l-0.017,60H95V95z
			 M30,30h55v55H30V30z M30,95h55v60H30V95z M30,165h55v60H30V165z M85,235v24.34c0.139-0.365,0.284-0.729,0.419-1.095
			c1.61-4.392,3.084-8.83,4.412-13.313c2.013-6.793,3.611-13.713,5.169-20.642V165h24.635c0.448-0.39,0.898-0.777,1.366-1.144
			c10.651-8.332,25.202-10.64,36.802-2.29c2.563,1.845,4.965,3.851,7.197,6.006V165h50.752c0.822-3.341,1.669-6.676,2.545-10H165V95
			h60v37.296c1.785-5.325,3.73-10.593,5.889-15.778c1.297-3.115,2.65-6.18,4.111-9.162V95h7.234c2.565-3.609,5.483-6.97,8.883-10
			H235V30h60v53.54c4.438,3.21,8.144,7.117,11.295,11.46H360v60h-32.566c0.735,3.338,1.476,6.673,2.237,10H360v68.129
			c-25.453-7.088-33.194-41.814-40.674-75.438c-7.736-34.783-15.044-67.638-42.134-72.717l-0.194-0.033
			c-22.298-3.495-33.816,23.947-37.604,32.961c-8.096,19.28-14.177,44.584-20.058,69.056c-6.704,27.896-15.047,62.612-23.742,67.517
			c-0.613,0.346-0.993,0.389-1.54,0.215c-8.021-2.674-12.721-22.131-16.497-37.767c-2.698-11.172-5.489-22.726-9.702-31.334
			c-9.053-18.799-20.785-20.611-26.959-20.017c-13.525,1.3-26.257,16.021-31.674,36.611c-0.938,3.514-1.954,7.973-3.131,13.137
			c-5.438,23.851-16.754,73.479-36.601,76.611l-0.203,0.037c-14.102,2.68-21.001-9.07-30.665-28.763
			c-2.808-5.722-5.537-11.269-8.624-16.103V235H85z M155,360H95v-55h60V360z M225,360h-60v-55h60V360z M295,360h-60v-55h60V360z
			 M295,295h-60v-60h60V295z M360,360h-55v-55h55V360z M305,295v-60h20.959c-1.496-1.744-2.904-3.543-4.189-5.391
			c-1.051-1.51-2.043-3.049-2.993-4.609H305v-33.537c-3.99-14.396-6.605-29.373-10-43.748V155h-45.407
			c-0.93,3.324-1.827,6.658-2.692,10H295v60h-60v-11.652c-0.551,2.162-1.092,4.327-1.664,6.483
			c-2.384,8.976-4.922,18.073-8.336,26.782V295h-60v-45.98c-1.675-4.4-3.006-8.889-4.123-13.09
			c-2.137-8.041-3.828-16.193-5.877-24.255V225h-29.104c-0.771,3.336-1.55,6.672-2.354,10H151.5h3.5v60h-54.821
			c-4.138,5.713-9.106,10.605-15.179,13.84V360H30v-45.66V305h11.174c-3.483-2.883-6.545-6.352-9.214-10H30v-19.936
			c7.564,14.869,17.326,30.315,35.203,30.314c2.031,0,4.17-0.199,6.419-0.622c28.461-4.61,39.704-53.911,47.145-86.548
			c1.149-5.04,2.142-9.393,3.023-12.697c3.854-14.647,12.603-26.256,20.35-27c6.556-0.621,11.587,7.697,14.022,12.754
			c3.605,7.367,6.226,18.216,8.76,28.708c5.229,21.647,10.168,42.094,25.107,47.074c4.069,1.293,8.202,0.86,11.952-1.252
			c12.97-7.312,19.849-33.568,29.998-75.803c9.654-40.177,22.862-95.184,42.92-92.224c18.578,3.584,24.972,32.321,31.737,62.742
			c8.077,36.313,17.228,77.457,51.602,85.607c0.587,0.188,1.175,0.345,1.763,0.494V295H305z"/>
		<path d="M191.859,235h5.514c0.332-0.912,0.668-1.822,0.982-2.741c0.82-2.405,1.594-4.827,2.334-7.259h-11.659
			c0.53,2.084,1.081,4.162,1.683,6.227C191.082,232.489,191.463,233.747,191.859,235z"/>
	</g>
</g>
<g>
</g>
<g>
</g>
<g>
</g>
<g>
</g>
<g>
</g>
<g>
</g>
<g>
</g>
<g>
</g>
<g>
</g>
<g>
</g>
<g>
</g>
<g>
</g>
<g>
</g>
<g>
</g>
<g>
</g>
</svg>
