<?xml version="1.0" standalone="no"?>
<!DOCTYPE svg PUBLIC "-//W3C//DTD SVG 20010904//EN"
 "http://www.w3.org/TR/2001/REC-SVG-20010904/DTD/svg10.dtd">
<svg version="1.0" xmlns="http://www.w3.org/2000/svg"
 width="24.000000pt" height="24.000000pt" viewBox="0 0 24.000000 24.000000"
 preserveAspectRatio="xMidYMid meet">
<metadata>
Created by potrace 1.12, written by Peter Selinger 2001-2015
</metadata>
<g transform="translate(0.000000,24.000000) scale(0.100000,-0.100000)"
fill="#000000" stroke="none">
<path d="M95 222 c-6 -4 -16 -20 -23 -37 -8 -16 -25 -52 -39 -80 l-26 -50 38
35 c38 36 41 33 20 -25 -7 -20 -6 -20 9 -1 9 11 17 18 18 15 2 -2 8 -13 14
-24 15 -26 48 -21 92 12 30 22 32 27 19 42 -20 23 -28 61 -16 83 8 15 6 18
-13 17 -13 -1 -36 3 -51 10 -33 13 -29 13 -42 3z"/>
</g>
</svg>
