<?xml version="1.0" encoding="iso-8859-1"?>
<!-- Generator: Adobe Illustrator 19.0.0, SVG Export Plug-In . SVG Version: 6.00 Build 0)  -->
<svg version="1.1" id="Layer_1" xmlns="http://www.w3.org/2000/svg" xmlns:xlink="http://www.w3.org/1999/xlink" x="0px" y="0px"
	 viewBox="0 0 512 512" style="enable-background:new 0 0 512 512;" xml:space="preserve">
<path style="fill:#E2574C;" d="M512,254c0,141.384-114.616,256-256,256S0,395.384,0,254S114.616,2,256,2S512,112.616,512,254z"/>
<path style="fill:#F5F5F5;" d="M314.96,78h-192c-4.4,0-9.264,3.6-9.264,8v344c0,4.4,4.864,8,9.264,8h264c4.404,0,6.74-3.6,6.74-8
	V162L314.96,78z"/>
<path style="fill:#FFFFFF;" d="M322.96,162c-4.4,0-9.26-3.6-9.26-8V78l81.26,84H322.96z"/>
<path style="fill:#CC584C;" d="M169.7,114c-16,0-30.736,14.328-30.736,32H169.7L169.7,114L169.7,114z"/>
<g>
	<path style="fill:#3D5866;" d="M173.7,118v32h-30.736c0,17.672,14.328,32,32,32s31.368-14.328,31.368-32S193.7,118,173.7,118z"/>
	<path style="fill:#3D5866;" d="M173.7,338v32h-30.736c0,17.672,14.328,32,32,32s31.368-14.328,31.368-32S193.7,338,173.7,338z"/>
</g>
<g>
	<rect x="225.68" y="122" style="fill:#CC584C;" width="72" height="8"/>
	<rect x="181.68" y="246" style="fill:#CC584C;" width="176" height="8"/>
</g>
<g>
	<rect x="225.68" y="142" style="fill:#B3B3B3;" width="72" height="4"/>
	<rect x="181.68" y="262" style="fill:#B3B3B3;" width="144" height="4"/>
	<rect x="225.68" y="350" style="fill:#B3B3B3;" width="128" height="4"/>
	<rect x="225.68" y="362" style="fill:#B3B3B3;" width="128" height="4"/>
	<rect x="225.68" y="374" style="fill:#B3B3B3;" width="128" height="4"/>
	<rect x="225.68" y="386" style="fill:#B3B3B3;" width="128" height="4"/>
	<rect x="225.68" y="398" style="fill:#B3B3B3;" width="128" height="4"/>
	<rect x="181.68" y="274" style="fill:#B3B3B3;" width="168" height="4"/>
	<rect x="181.68" y="286" style="fill:#B3B3B3;" width="96" height="4"/>
	<rect x="225.68" y="150" style="fill:#B3B3B3;" width="72" height="4"/>
	<rect x="225.68" y="158" style="fill:#B3B3B3;" width="72" height="4"/>
	<rect x="225.68" y="166" style="fill:#B3B3B3;" width="72" height="4"/>
</g>
<path style="fill:#CC584C;" d="M169.7,246c-16,0-30.736,14.328-30.736,32H169.7L169.7,246L169.7,246z"/>
<g>
</g>
<g>
</g>
<g>
</g>
<g>
</g>
<g>
</g>
<g>
</g>
<g>
</g>
<g>
</g>
<g>
</g>
<g>
</g>
<g>
</g>
<g>
</g>
<g>
</g>
<g>
</g>
<g>
</g>
</svg>
