<?xml version="1.0" standalone="no"?>
<!DOCTYPE svg PUBLIC "-//W3C//DTD SVG 20010904//EN"
 "http://www.w3.org/TR/2001/REC-SVG-20010904/DTD/svg10.dtd">
<svg version="1.0" xmlns="http://www.w3.org/2000/svg"
 width="2000.000000pt" height="284.000000pt" viewBox="0 0 2000.000000 284.000000"
 preserveAspectRatio="xMidYMid meet">
<metadata>
Created by potrace 1.13, written by Peter Selinger 2001-2015
</metadata>
<g transform="translate(0.000000,284.000000) scale(0.100000,-0.100000)"
fill="#000000" stroke="none">
<path d="M8901 2619 c-66 -11 -137 -49 -184 -98 -30 -31 -1477 -2289 -1477
-2305 0 -3 120 -6 268 -6 l267 0 590 938 c325 515 595 936 600 935 8 -2 645
-1018 645 -1029 0 -2 -274 -5 -609 -6 l-610 -3 132 -205 132 -205 624 -5 623
-5 126 -207 125 -208 269 0 c147 0 268 2 268 4 0 7 -1440 2258 -1467 2293 -65
85 -200 132 -322 112z"/>
<path d="M19287 2606 c-113 -31 -188 -121 -195 -232 -6 -89 12 -145 64 -203
61 -68 127 -95 215 -89 153 11 260 137 246 288 -15 165 -174 279 -330 236z
m126 -57 c47 -13 115 -72 134 -116 21 -51 17 -133 -10 -184 -67 -127 -247
-147 -341 -37 -137 160 14 394 217 337z"/>
<path d="M19250 2361 l0 -151 30 0 c30 0 30 1 30 55 0 51 2 55 23 55 18 0 29
-12 50 -55 24 -49 30 -55 57 -55 16 0 30 3 30 8 0 4 -13 30 -29 59 l-29 52 25
23 c19 18 23 30 21 67 -4 63 -36 84 -134 89 l-74 4 0 -151z"/>
<path d="M1362 2585 c-244 -44 -456 -156 -633 -334 -235 -236 -352 -517 -351
-846 0 -247 64 -460 197 -660 191 -287 506 -483 845 -525 68 -8 325 -10 905
-7 881 4 840 1 1021 62 477 160 804 620 804 1130 0 325 -120 615 -350 845
-179 180 -393 292 -638 335 -119 21 -1685 21 -1800 0z m1712 -419 c418 -80
696 -497 610 -914 -64 -313 -308 -550 -624 -608 -109 -19 -1481 -19 -1590 0
-172 32 -286 92 -415 221 -73 72 -100 108 -138 181 -147 286 -106 634 101 869
114 129 288 227 450 255 26 4 381 8 789 9 608 1 755 -2 817 -13z"/>
<path d="M4400 1405 l0 -1195 230 0 230 0 0 985 0 986 808 -3 807 -3 57 -27
c80 -37 152 -107 191 -187 30 -61 32 -73 32 -166 0 -91 -3 -106 -31 -165 -38
-80 -105 -149 -182 -187 l-57 -28 -700 -5 -700 -5 350 -306 c193 -168 500
-437 684 -597 l335 -292 333 0 334 0 -453 380 c-249 210 -454 385 -456 390 -2
6 55 10 145 10 171 0 237 10 344 51 239 92 421 298 490 554 30 112 30 288 0
400 -73 274 -274 482 -556 577 l-70 23 -1082 3 -1083 3 0 -1196z"/>
<path d="M11445 2584 c-366 -64 -694 -312 -864 -651 -173 -347 -157 -791 41
-1128 170 -288 426 -477 768 -567 84 -22 94 -22 885 -25 l800 -3 132 208 131
207 -891 5 -892 6 -75 22 c-321 98 -539 365 -566 693 -32 379 239 736 618 813
66 14 179 16 790 16 l713 0 125 196 c69 108 129 203 133 210 12 21 -1730 19
-1848 -2z"/>
<path d="M13550 1512 c0 -1166 -1 -1140 49 -1211 12 -17 43 -43 69 -58 l47
-28 1085 -2 1085 -3 132 208 132 207 -1070 3 -1069 2 0 985 0 985 -230 0 -230
0 0 -1088z"/>
<path d="M17035 2584 c-747 -133 -1185 -932 -895 -1634 147 -357 443 -608 840
-712 84 -22 94 -22 885 -25 l800 -3 132 208 131 207 -891 5 c-888 6 -892 6
-965 28 -155 47 -292 136 -388 250 -51 62 -139 221 -146 267 -3 20 3 20 979
23 l981 2 131 203 c72 112 131 207 131 210 0 4 -502 7 -1115 7 l-1114 0 14 41
c66 186 212 350 390 438 159 79 111 75 945 78 l745 4 110 171 c61 94 121 188
134 209 l23 39 -888 -1 c-723 -1 -904 -3 -969 -15z"/>
</g>
</svg>
