<?xml version="1.0" encoding="utf-8"?>
<!-- Generator: Adobe Illustrator 18.1.1, SVG Export Plug-In . SVG Version: 6.00 Build 0)  -->
<svg version="1.1" id="Layer_1" xmlns="http://www.w3.org/2000/svg" xmlns:xlink="http://www.w3.org/1999/xlink" x="0px" y="0px"
	 viewBox="1.2 25.2 73.8 24.2" enable-background="new 1.2 25.2 73.8 24.2" xml:space="preserve">
<g>
	<path fill="#FF7900" d="M26.7,42.2c-0.1-0.2-0.3-0.3-0.5-0.3c-0.1,0-0.3,0-0.4,0.3C22.3,46.4,16.9,47,14,47h0
		c-2.9,0-8.3-0.6-11.8-4.9c-0.2-0.2-0.3-0.3-0.4-0.3c-0.2,0-0.4,0.1-0.5,0.3c-0.2,0.4-0.2,1,0.1,1.6c1.7,2.8,6.6,5.7,12.5,5.7h0
		c6,0,10.8-2.9,12.5-5.7C26.9,43.2,26.9,42.5,26.7,42.2z M26.6,42.8c0,0,0-0.1,0-0.1C26.6,42.7,26.6,42.7,26.6,42.8z M26.6,42.6
		C26.6,42.6,26.6,42.5,26.6,42.6C26.6,42.5,26.6,42.6,26.6,42.6z M26.6,42.5c0,0,0-0.1,0-0.1C26.6,42.4,26.6,42.4,26.6,42.5z
		 M26.6,42.4C26.6,42.3,26.5,42.3,26.6,42.4C26.5,42.3,26.6,42.3,26.6,42.4z M26.5,42.2C26.5,42.2,26.5,42.2,26.5,42.2
		C26.5,42.2,26.5,42.2,26.5,42.2z M26.4,42.1C26.4,42.1,26.4,42.1,26.4,42.1C26.4,42.1,26.4,42.1,26.4,42.1z M26.3,42.1
		C26.3,42,26.2,42,26.3,42.1C26.2,42,26.2,42,26.3,42.1C26.3,42,26.3,42,26.3,42.1z M26.4,42.1C26.3,42.1,26.3,42.1,26.4,42.1
		C26.3,42.1,26.3,42.1,26.4,42.1z M26.2,42C26.2,42.1,26.2,42.1,26.2,42C26.2,42.1,26.2,42.1,26.2,42z M26.1,42.1
		C26.1,42.1,26.1,42.1,26.1,42.1C26.1,42.1,26.1,42.1,26.1,42.1z M26,42.1C26,42.2,26,42.2,26,42.1C26,42.2,26,42.2,26,42.1z
		 M2.1,42.2C2.1,42.2,2.1,42.2,2.1,42.2C2.1,42.2,2.1,42.2,2.1,42.2z M2,42.1C2,42.1,2,42.1,2,42.1C2,42.1,2,42.1,2,42.1z M1.9,42.1
		C1.9,42.1,1.9,42.1,1.9,42.1C1.9,42.1,1.9,42.1,1.9,42.1z M1.8,42C1.8,42,1.8,42,1.8,42C1.8,42,1.8,42,1.8,42C1.8,42,1.8,42,1.8,42
		z M1.7,42.1C1.6,42.1,1.6,42.1,1.7,42.1C1.6,42.1,1.6,42.1,1.7,42.1z M1.7,42.1C1.7,42.1,1.7,42.1,1.7,42.1
		C1.7,42.1,1.7,42.1,1.7,42.1z M1.6,42.2C1.6,42.2,1.6,42.2,1.6,42.2C1.6,42.2,1.6,42.2,1.6,42.2z M1.5,42.3
		C1.5,42.3,1.5,42.3,1.5,42.3C1.5,42.3,1.5,42.3,1.5,42.3z M1.5,42.4c0,0,0,0.1,0,0.1C1.5,42.4,1.5,42.4,1.5,42.4z M1.4,42.5
		C1.4,42.5,1.4,42.6,1.4,42.5C1.4,42.6,1.4,42.5,1.4,42.5z M1.4,42.7C1.4,42.7,1.4,42.7,1.4,42.7C1.4,42.7,1.4,42.7,1.4,42.7z
		 M1.4,42.8c0,0,0,0.1,0,0.2C1.4,42.9,1.4,42.9,1.4,42.8z M1.4,43c0,0.1,0,0.1,0,0.2C1.4,43.1,1.4,43,1.4,43z M1.4,43.2
		c0,0,0,0.1,0,0.1C1.5,43.2,1.5,43.2,1.4,43.2z M1.6,43.5c0,0.1,0.1,0.1,0.1,0.2C1.6,43.6,1.6,43.6,1.6,43.5z M1.5,43.3
		c0,0,0,0.1,0,0.1C1.5,43.4,1.5,43.4,1.5,43.3z M26.4,43.7c0-0.1,0.1-0.1,0.1-0.2C26.5,43.6,26.4,43.6,26.4,43.7z M26.5,43.4
		c0,0,0-0.1,0-0.1C26.5,43.4,26.5,43.4,26.5,43.4z M26.6,43.1c0-0.1,0-0.2,0-0.3C26.6,42.9,26.6,43,26.6,43.1z M26.6,43.3
		c0,0,0-0.1,0-0.1C26.6,43.2,26.6,43.2,26.6,43.3z M14,44.5L14,44.5c5.6,0,10.1-2.5,11.3-4.9c0.3-0.6,0.3-1.2,0.1-1.6
		c-0.1-0.2-0.3-0.3-0.4-0.3c-0.1,0-0.3,0-0.4,0.2c-1.1,1.3-4.4,4.3-10.5,4.3h0c-6.1,0-9.4-3-10.5-4.3c-0.2-0.2-0.3-0.2-0.4-0.2
		c-0.2,0-0.3,0.1-0.4,0.3c-0.2,0.4-0.2,1,0.1,1.6C3.9,42,8.4,44.5,14,44.5z M2.8,39.3c0,0.1,0,0.1,0.1,0.2
		C2.9,39.4,2.9,39.4,2.8,39.3z M2.7,39c0,0,0,0.1,0,0.1C2.8,39,2.7,39,2.7,39z M2.8,39.1c0,0,0,0.1,0,0.1
		C2.8,39.2,2.8,39.2,2.8,39.1z M25.3,39.1c0,0,0-0.1,0-0.1C25.3,39,25.3,39,25.3,39.1z M25.1,39.5c0-0.1,0.1-0.1,0.1-0.2
		C25.2,39.4,25.2,39.4,25.1,39.5z M25.2,39.3c0,0,0-0.1,0-0.1C25.2,39.2,25.2,39.2,25.2,39.3z M25.3,38.7c0,0,0-0.1,0-0.1
		C25.3,38.6,25.3,38.7,25.3,38.7z M25.3,38.9c0-0.1,0-0.1,0-0.2C25.3,38.8,25.3,38.9,25.3,38.9z M25.3,38.4
		C25.3,38.4,25.3,38.4,25.3,38.4C25.3,38.4,25.3,38.4,25.3,38.4z M25.3,38.6C25.3,38.5,25.3,38.5,25.3,38.6
		C25.3,38.5,25.3,38.5,25.3,38.6z M25.3,38.3c0,0,0-0.1,0-0.1C25.3,38.2,25.3,38.3,25.3,38.3z M25.3,38.2
		C25.2,38.2,25.2,38.1,25.3,38.2C25.2,38.1,25.2,38.2,25.3,38.2z M25.2,38.1C25.2,38.1,25.2,38.1,25.2,38.1
		C25.2,38.1,25.2,38.1,25.2,38.1z M25.2,38C25.1,38,25.1,38,25.2,38C25.1,38,25.1,38,25.2,38z M25,37.9C25,37.9,25,37.9,25,37.9
		C25,37.9,25,37.9,25,37.9C25,37.9,25,37.9,25,37.9z M25.1,38C25.1,38,25,38,25.1,38C25,38,25.1,38,25.1,38z M24.8,38
		C24.7,38.1,24.7,38.1,24.8,38C24.7,38.1,24.7,38.1,24.8,38z M24.9,37.9C24.9,38,24.9,38,24.9,37.9C24.9,38,24.9,38,24.9,37.9z
		 M24.8,38C24.8,38,24.8,38,24.8,38C24.8,38,24.8,38,24.8,38z M3.4,38.1C3.3,38.1,3.3,38.1,3.4,38.1C3.3,38.1,3.3,38.1,3.4,38.1z
		 M3.3,38C3.2,38,3.2,38,3.3,38C3.2,38,3.2,38,3.3,38z M3.2,38C3.2,38,3.1,38,3.2,38C3.1,38,3.2,38,3.2,38z M3.1,37.9
		C3.1,37.9,3.1,37.9,3.1,37.9C3.1,37.9,3.1,37.9,3.1,37.9C3.1,37.9,3.1,37.9,3.1,37.9z M3,38C2.9,38,2.9,38,3,38C2.9,38,2.9,38,3,38
		z M3,38C3,38,3,38,3,38C3,38,3,38,3,38z M2.7,38.3C2.7,38.4,2.7,38.4,2.7,38.3C2.7,38.4,2.7,38.4,2.7,38.3z M2.9,38
		C2.9,38.1,2.9,38.1,2.9,38C2.9,38.1,2.9,38.1,2.9,38z M2.8,38.1C2.8,38.1,2.8,38.2,2.8,38.1C2.8,38.2,2.8,38.1,2.8,38.1z M2.8,38.2
		c0,0,0,0.1,0,0.1C2.8,38.3,2.8,38.2,2.8,38.2z M2.7,38.5C2.7,38.5,2.7,38.5,2.7,38.5C2.7,38.5,2.7,38.5,2.7,38.5z M2.7,38.6
		c0,0,0,0.1,0,0.1C2.7,38.7,2.7,38.6,2.7,38.6z M2.7,38.9c0-0.1,0-0.1,0-0.2C2.7,38.8,2.7,38.9,2.7,38.9z M14,39.6
		C14,39.6,14,39.6,14,39.6L14,39.6C14.1,39.6,14.1,39.6,14,39.6c5,0,9.2-2.4,10-4.2c0.3-0.5,0.3-1.2,0.1-1.5
		c-0.1-0.2-0.2-0.2-0.4-0.2c-0.1,0-0.3,0.1-0.5,0.2c-0.7,0.7-1.8,1.6-3.6,2.4c-1.7,0.8-3.6,1.1-5.7,1.1c-2,0-3.9-0.4-5.7-1.1
		c-1.8-0.8-3-1.7-3.6-2.4c-0.2-0.2-0.3-0.2-0.5-0.2c-0.2,0-0.3,0.1-0.4,0.2c-0.2,0.3-0.2,1,0.1,1.5C4.9,37.2,9.1,39.6,14,39.6z
		 M4.1,35.2c0,0,0,0.1,0.1,0.1c0,0.1,0.1,0.1,0.1,0.2c0-0.1-0.1-0.1-0.1-0.2C4.2,35.3,4.2,35.3,4.1,35.2z M4,34.7c0,0,0,0.1,0,0.1
		C4,34.8,4,34.8,4,34.7z M4,34.9c0,0,0,0.1,0,0.1C4.1,35,4,34.9,4,34.9z M4.1,35.1c0,0,0,0.1,0,0.1C4.1,35.1,4.1,35.1,4.1,35.1z
		 M4.6,35.9c0,0,0.1,0.1,0.1,0.1C4.6,36,4.6,35.9,4.6,35.9z M4.3,35.5c0,0.1,0.1,0.1,0.1,0.2C4.4,35.6,4.3,35.6,4.3,35.5z M4.4,35.7
		c0,0,0.1,0.1,0.1,0.1C4.5,35.8,4.5,35.8,4.4,35.7z M4.7,36.1c0,0,0.1,0.1,0.1,0.1C4.8,36.2,4.8,36.1,4.7,36.1z M14,39.4
		C14,39.4,14,39.4,14,39.4C14,39.4,14,39.4,14,39.4c-0.1,0-0.2,0-0.2,0C13.9,39.4,14,39.4,14,39.4c0.1,0,0.1,0,0.2,0
		C14.2,39.4,14.1,39.4,14,39.4z M4.9,36.2c0,0,0.1,0.1,0.1,0.1C5,36.3,4.9,36.3,4.9,36.2z M5.1,36.4c0,0,0.1,0.1,0.1,0.1
		C5.2,36.5,5.1,36.5,5.1,36.4z M5.3,36.6c0,0,0.1,0.1,0.1,0.1C5.4,36.7,5.4,36.7,5.3,36.6z M5.6,36.8c0,0,0.1,0.1,0.1,0.1
		C5.6,36.9,5.6,36.8,5.6,36.8z M5.8,37c0,0,0.1,0.1,0.1,0.1C5.9,37,5.8,37,5.8,37z M6.1,37.2c0,0,0.1,0,0.1,0.1
		C6.1,37.2,6.1,37.2,6.1,37.2z M6.4,37.3C6.4,37.4,6.4,37.4,6.4,37.3C6.4,37.4,6.4,37.4,6.4,37.3z M6.7,37.5
		C6.7,37.5,6.7,37.5,6.7,37.5C6.7,37.5,6.7,37.5,6.7,37.5z M7,37.7C7,37.7,7,37.7,7,37.7C7,37.7,7,37.7,7,37.7z M7.3,37.8
		C7.3,37.9,7.3,37.9,7.3,37.8C7.3,37.9,7.3,37.9,7.3,37.8z M7.6,38C7.6,38,7.7,38,7.6,38C7.7,38,7.6,38,7.6,38z M7.9,38.1
		C8,38.2,8,38.2,7.9,38.1C8,38.2,8,38.2,7.9,38.1z M8.3,38.3C8.3,38.3,8.3,38.3,8.3,38.3C8.3,38.3,8.3,38.3,8.3,38.3z M8.6,38.4
		C8.7,38.4,8.7,38.4,8.6,38.4C8.7,38.4,8.7,38.4,8.6,38.4z M9,38.6C9,38.6,9.1,38.6,9,38.6C9.1,38.6,9,38.6,9,38.6z M9.4,38.7
		C9.4,38.7,9.4,38.7,9.4,38.7C9.4,38.7,9.4,38.7,9.4,38.7z M9.8,38.8c0,0,0.1,0,0.1,0C9.8,38.8,9.8,38.8,9.8,38.8z M10.1,38.9
		c0,0,0.1,0,0.1,0C10.2,38.9,10.2,38.9,10.1,38.9z M10.5,39c0,0,0.1,0,0.1,0C10.6,39,10.6,39,10.5,39z M10.9,39.1c0,0,0.1,0,0.1,0
		C11,39.1,11,39.1,10.9,39.1z M11.3,39.2c0.1,0,0.1,0,0.2,0C11.4,39.2,11.4,39.2,11.3,39.2z M11.7,39.2c0.1,0,0.1,0,0.2,0
		C11.8,39.2,11.8,39.2,11.7,39.2z M12.1,39.3c0.1,0,0.1,0,0.2,0C12.3,39.3,12.2,39.3,12.1,39.3z M12.5,39.3c0.1,0,0.1,0,0.2,0
		C12.7,39.4,12.6,39.3,12.5,39.3z M13,39.4c0.1,0,0.1,0,0.2,0C13.1,39.4,13,39.4,13,39.4z M13.4,39.4c0.1,0,0.1,0,0.2,0
		C13.5,39.4,13.5,39.4,13.4,39.4z M14.5,39.4c0.1,0,0.1,0,0.2,0C14.6,39.4,14.5,39.4,14.5,39.4z M14.9,39.4c0.1,0,0.1,0,0.2,0
		C15,39.4,15,39.4,14.9,39.4z M15.3,39.4c0.1,0,0.1,0,0.2,0C15.5,39.3,15.4,39.4,15.3,39.4z M15.8,39.3c0.1,0,0.1,0,0.2,0
		C15.9,39.3,15.8,39.3,15.8,39.3z M16.2,39.3c0.1,0,0.1,0,0.2,0C16.3,39.2,16.2,39.2,16.2,39.3z M16.6,39.2c0,0,0.1,0,0.1,0
		C16.7,39.2,16.6,39.2,16.6,39.2z M17,39.1c0,0,0.1,0,0.1,0C17.1,39.1,17.1,39.1,17,39.1z M17.4,39c0,0,0.1,0,0.1,0
		C17.5,39,17.5,39,17.4,39z M17.8,38.9C17.9,38.9,17.9,38.9,17.8,38.9C17.9,38.9,17.9,38.9,17.8,38.9z M18.2,38.8
		C18.2,38.8,18.3,38.8,18.2,38.8C18.3,38.8,18.2,38.8,18.2,38.8z M18.6,38.7C18.6,38.7,18.7,38.7,18.6,38.7
		C18.7,38.7,18.6,38.7,18.6,38.7z M19,38.6C19,38.6,19,38.6,19,38.6C19,38.6,19,38.6,19,38.6z M19.3,38.5
		C19.4,38.4,19.4,38.4,19.3,38.5C19.4,38.4,19.4,38.4,19.3,38.5z M19.7,38.3C19.7,38.3,19.7,38.3,19.7,38.3
		C19.7,38.3,19.7,38.3,19.7,38.3z M20,38.2C20.1,38.2,20.1,38.2,20,38.2C20.1,38.2,20.1,38.2,20,38.2z M20.4,38
		C20.4,38,20.4,38,20.4,38C20.4,38,20.4,38,20.4,38z M20.7,37.9C20.7,37.9,20.7,37.9,20.7,37.9C20.7,37.9,20.7,37.9,20.7,37.9z
		 M21,37.7C21,37.7,21,37.7,21,37.7C21,37.7,21,37.7,21,37.7z M21.3,37.6C21.3,37.6,21.3,37.6,21.3,37.6
		C21.3,37.6,21.3,37.6,21.3,37.6z M21.6,37.4C21.6,37.4,21.6,37.4,21.6,37.4C21.6,37.4,21.6,37.4,21.6,37.4z M21.9,37.2
		C21.9,37.2,21.9,37.2,21.9,37.2C21.9,37.2,21.9,37.2,21.9,37.2z M22.1,37.1C22.2,37.1,22.2,37,22.1,37.1
		C22.2,37,22.2,37.1,22.1,37.1z M22.4,36.9C22.4,36.9,22.4,36.9,22.4,36.9C22.4,36.9,22.4,36.9,22.4,36.9z M22.6,36.7
		C22.6,36.7,22.6,36.7,22.6,36.7C22.6,36.7,22.6,36.7,22.6,36.7z M22.8,36.5C22.9,36.5,22.9,36.5,22.8,36.5
		C22.9,36.5,22.9,36.5,22.8,36.5z M23,36.4C23.1,36.4,23.1,36.3,23,36.4C23.1,36.3,23.1,36.4,23,36.4z M23.2,36.2
		C23.2,36.2,23.3,36.2,23.2,36.2C23.3,36.2,23.2,36.2,23.2,36.2z M23.4,36C23.4,36,23.4,36,23.4,36C23.4,36,23.4,36,23.4,36z
		 M23.8,35.5c0-0.1,0.1-0.1,0.1-0.2c0,0,0-0.1,0.1-0.1c0,0,0,0.1-0.1,0.1C23.8,35.4,23.8,35.5,23.8,35.5z M23.5,35.9
		C23.5,35.8,23.6,35.8,23.5,35.9C23.6,35.8,23.5,35.8,23.5,35.9z M23.7,35.7C23.7,35.7,23.7,35.6,23.7,35.7
		C23.7,35.6,23.7,35.7,23.7,35.7z M24,34.9c0,0,0-0.1,0-0.1C24.1,34.8,24,34.8,24,34.9z M23.9,35.2c0,0,0-0.1,0-0.1
		C24,35.1,24,35.1,23.9,35.2z M24,35c0,0,0-0.1,0-0.1C24,34.9,24,35,24,35z M24.1,34.7c0,0,0-0.1,0-0.1
		C24.1,34.6,24.1,34.7,24.1,34.7z M24.1,34.5C24.1,34.5,24.1,34.5,24.1,34.5C24.1,34.5,24.1,34.5,24.1,34.5z M24.1,34.4
		C24.1,34.4,24.1,34.3,24.1,34.4C24.1,34.3,24.1,34.4,24.1,34.4z M24.1,34.3c0,0,0-0.1,0-0.1C24,34.2,24.1,34.2,24.1,34.3z M24,34.2
		C24,34.1,24,34.1,24,34.2C24,34.1,24,34.1,24,34.2z M24,34.1C24,34,24,34,24,34.1C24,34,24,34,24,34.1z M23.9,34
		C23.9,34,23.9,34,23.9,34C23.9,34,23.9,34,23.9,34z M23.8,33.9C23.8,33.9,23.9,33.9,23.8,33.9C23.9,33.9,23.8,33.9,23.8,33.9z
		 M23.8,33.9C23.8,33.9,23.8,33.9,23.8,33.9C23.8,33.9,23.8,33.9,23.8,33.9C23.8,33.9,23.8,33.9,23.8,33.9z M23.5,34
		C23.5,34,23.5,34,23.5,34C23.5,34,23.5,34,23.5,34z M23.7,33.9C23.7,33.9,23.7,33.9,23.7,33.9C23.7,33.9,23.7,33.9,23.7,33.9z
		 M23.6,33.9C23.6,33.9,23.6,34,23.6,33.9C23.6,34,23.6,33.9,23.6,33.9z M19.8,36.5c-0.1,0-0.1,0.1-0.2,0.1
		C19.6,36.6,19.7,36.6,19.8,36.5z M22.3,35.1C22.3,35.1,22.3,35.1,22.3,35.1C22.3,35.1,22.3,35.1,22.3,35.1z M21.9,35.4
		C21.9,35.4,21.8,35.4,21.9,35.4C21.8,35.4,21.9,35.4,21.9,35.4z M21.4,35.7c0,0-0.1,0-0.1,0.1C21.3,35.7,21.4,35.7,21.4,35.7z
		 M20.9,36c0,0-0.1,0-0.1,0.1C20.8,36,20.8,36,20.9,36z M20.3,36.3c-0.1,0-0.1,0.1-0.2,0.1C20.2,36.3,20.3,36.3,20.3,36.3z
		 M14.5,37.7c0.1,0,0.3,0,0.4,0C14.7,37.7,14.6,37.7,14.5,37.7z M15.3,37.6c0.1,0,0.2,0,0.4,0C15.5,37.6,15.4,37.6,15.3,37.6z
		 M16.1,37.5c0.1,0,0.2,0,0.3,0C16.3,37.5,16.2,37.5,16.1,37.5z M16.8,37.4c0.1,0,0.2,0,0.3-0.1C17,37.4,16.9,37.4,16.8,37.4z
		 M17.6,37.3c0.1,0,0.2,0,0.3-0.1C17.7,37.2,17.7,37.2,17.6,37.3z M18.3,37.1c0.1,0,0.2,0,0.3-0.1C18.4,37,18.3,37,18.3,37.1z
		 M18.9,36.9c0.1,0,0.2-0.1,0.2-0.1C19.1,36.8,19,36.8,18.9,36.9z M8.5,36.6c-0.1,0-0.1,0-0.2-0.1C8.4,36.6,8.4,36.6,8.5,36.6z
		 M13.6,37.7c-0.1,0-0.3,0-0.4,0C13.3,37.7,13.5,37.7,13.6,37.7z M12.8,37.6c-0.1,0-0.2,0-0.4,0C12.5,37.6,12.7,37.6,12.8,37.6z
		 M12,37.5c-0.1,0-0.2,0-0.3,0C11.8,37.5,11.9,37.5,12,37.5z M11.2,37.4c-0.1,0-0.2,0-0.3-0.1C11,37.4,11.1,37.4,11.2,37.4z
		 M10.5,37.3c-0.1,0-0.2,0-0.3-0.1C10.3,37.2,10.4,37.2,10.5,37.3z M9.8,37.1c-0.1,0-0.2,0-0.2-0.1C9.6,37,9.7,37,9.8,37.1z
		 M9.1,36.8c-0.1,0-0.1,0-0.2-0.1C9,36.8,9.1,36.8,9.1,36.8z M7.9,36.3c0,0-0.1,0-0.1-0.1C7.8,36.3,7.8,36.3,7.9,36.3z M7.3,36
		C7.2,36,7.2,36,7.3,36C7.2,36,7.2,36,7.3,36z M6.7,35.7C6.7,35.7,6.7,35.7,6.7,35.7C6.7,35.7,6.7,35.7,6.7,35.7z M4.6,34.1
		C4.6,34,4.6,34,4.6,34.1C4.6,34,4.6,34,4.6,34.1z M4.5,34C4.5,34,4.4,33.9,4.5,34C4.4,33.9,4.5,34,4.5,34z M4.4,33.9
		C4.4,33.9,4.4,33.9,4.4,33.9C4.4,33.9,4.4,33.9,4.4,33.9z M4.3,33.9C4.3,33.9,4.3,33.9,4.3,33.9C4.3,33.9,4.3,33.9,4.3,33.9
		C4.3,33.9,4.3,33.9,4.3,33.9z M4.2,33.9C4.2,33.9,4.2,33.9,4.2,33.9C4.2,33.9,4.2,33.9,4.2,33.9z M4.2,33.9C4.2,34,4.1,34,4.2,33.9
		C4.1,34,4.2,34,4.2,33.9z M4,34.4C4,34.5,4,34.5,4,34.4C4,34.5,4,34.5,4,34.4z M4.1,34C4.1,34,4.1,34,4.1,34C4.1,34,4.1,34,4.1,34z
		 M4.1,34.1C4.1,34.1,4,34.1,4.1,34.1C4,34.1,4.1,34.1,4.1,34.1z M4,34.2c0,0,0,0.1,0,0.1C4,34.2,4,34.2,4,34.2z M4,34.3
		C4,34.3,4,34.4,4,34.3C4,34.4,4,34.3,4,34.3z M4,34.7c0,0,0-0.1,0-0.1C4,34.6,4,34.6,4,34.7z M14,34.8C14,34.8,14,34.8,14,34.8
		C14,34.8,14,34.8,14,34.8C14,34.8,14,34.8,14,34.8c3.9,0,7.4-1.4,8.8-3.5c0.5-0.7,0.4-1.2,0.3-1.4c-0.1-0.2-0.3-0.4-0.5-0.4
		c-0.2,0-0.4,0.1-0.5,0.3c-1.4,1.8-4.5,2.8-8.1,2.8c-3.6,0-6.7-1.1-8.1-2.8c-0.1-0.2-0.3-0.3-0.5-0.3c-0.2,0-0.4,0.1-0.5,0.4
		c-0.1,0.2-0.2,0.7,0.3,1.4C6.6,33.4,10.2,34.8,14,34.8z M5.2,31c0,0.1,0.1,0.1,0.1,0.2C5.3,31.1,5.2,31.1,5.2,31z M5.1,30.8
		c0,0,0,0.1,0.1,0.1C5.2,30.9,5.1,30.9,5.1,30.8z M21.9,30.3C21.9,30.3,21.9,30.3,21.9,30.3C21.9,30.3,21.9,30.3,21.9,30.3z
		 M6.1,30.3C6.1,30.3,6.1,30.3,6.1,30.3C6.1,30.3,6.1,30.3,6.1,30.3z M13.7,34.6c0.1,0,0.2,0,0.3,0c0.1,0,0.2,0,0.3,0
		c-0.1,0-0.2,0-0.3,0c0,0,0,0,0,0c0,0,0,0,0,0C13.9,34.6,13.8,34.6,13.7,34.6z M12.5,34.5C12.5,34.5,12.5,34.5,12.5,34.5
		C12.5,34.5,12.5,34.5,12.5,34.5z M13.1,34.6c0.1,0,0.1,0,0.2,0C13.2,34.6,13.1,34.6,13.1,34.6z M6.4,30.6
		C6.4,30.6,6.4,30.6,6.4,30.6C6.4,30.6,6.4,30.6,6.4,30.6z M13.3,32.9c0.1,0,0.1,0,0.2,0C13.4,32.9,13.4,32.9,13.3,32.9z M14.5,32.9
		c0.1,0,0.1,0,0.2,0C14.6,32.9,14.6,32.9,14.5,32.9z M15.4,32.9C15.4,32.9,15.4,32.9,15.4,32.9C15.4,32.9,15.4,32.9,15.4,32.9z
		 M21.3,30.9C21.3,30.9,21.3,30.9,21.3,30.9C21.3,30.9,21.3,30.9,21.3,30.9z M21.6,30.6C21.6,30.6,21.6,30.6,21.6,30.6
		C21.6,30.6,21.6,30.6,21.6,30.6z M14.9,34.6c-0.1,0-0.1,0-0.2,0C14.8,34.6,14.9,34.6,14.9,34.6z M22.8,31c0,0,0-0.1,0.1-0.1
		C22.9,30.9,22.9,30.9,22.8,31z M22.7,31.2c0-0.1,0.1-0.1,0.1-0.2C22.8,31.1,22.7,31.1,22.7,31.2z M22.9,30.8c0-0.1,0-0.1,0.1-0.2
		C23,30.7,22.9,30.7,22.9,30.8z M23,30.6c0-0.1,0-0.1,0-0.1C23,30.5,23,30.6,23,30.6z M23,30.4c0,0,0-0.1,0-0.1
		C23,30.4,23,30.4,23,30.4z M23,30.3c0,0,0-0.1,0-0.1C23,30.2,23,30.2,23,30.3z M23,30.2C23,30.1,23,30.1,23,30.2
		C23,30.1,23,30.1,23,30.2z M22.9,29.9C22.9,29.9,22.9,29.9,22.9,29.9C22.9,29.9,22.9,29.9,22.9,29.9z M23,30C23,30,22.9,30,23,30
		C22.9,30,23,30,23,30z M22.7,29.8C22.7,29.8,22.7,29.8,22.7,29.8C22.7,29.8,22.7,29.8,22.7,29.8z M22.8,29.8
		C22.8,29.8,22.8,29.9,22.8,29.8C22.8,29.9,22.8,29.8,22.8,29.8z M22.7,29.8C22.7,29.8,22.6,29.8,22.7,29.8
		C22.6,29.8,22.6,29.8,22.7,29.8C22.6,29.8,22.7,29.8,22.7,29.8z M22.3,29.9C22.3,29.9,22.3,29.9,22.3,29.9
		C22.3,29.9,22.3,29.9,22.3,29.9z M22.6,29.8C22.5,29.8,22.5,29.8,22.6,29.8C22.5,29.8,22.5,29.8,22.6,29.8z M22.4,29.8
		C22.4,29.8,22.4,29.8,22.4,29.8C22.4,29.8,22.4,29.8,22.4,29.8z M5.7,29.9C5.7,29.9,5.7,29.9,5.7,29.9C5.7,29.9,5.7,29.9,5.7,29.9z
		 M5.6,29.8C5.6,29.8,5.6,29.8,5.6,29.8C5.6,29.8,5.6,29.8,5.6,29.8z M5.5,29.8C5.5,29.8,5.5,29.8,5.5,29.8
		C5.5,29.8,5.5,29.8,5.5,29.8z M5.4,29.8C5.4,29.8,5.4,29.8,5.4,29.8C5.4,29.8,5.4,29.8,5.4,29.8C5.4,29.8,5.4,29.8,5.4,29.8z
		 M5.3,29.8C5.3,29.8,5.3,29.8,5.3,29.8C5.3,29.8,5.3,29.8,5.3,29.8z M5.2,29.8C5.2,29.8,5.2,29.9,5.2,29.8
		C5.2,29.9,5.2,29.8,5.2,29.8z M5.2,29.9C5.1,29.9,5.1,29.9,5.2,29.9C5.1,29.9,5.1,29.9,5.2,29.9z M5,30.1C5,30.1,5,30.1,5,30.1
		C5,30.1,5,30.1,5,30.1z M5.1,30C5.1,30,5.1,30,5.1,30C5.1,30,5.1,30,5.1,30z M5,30.2c0,0,0,0.1,0,0.1C5,30.2,5,30.2,5,30.2z
		 M5.1,30.8c0-0.1,0-0.1-0.1-0.2C5.1,30.7,5.1,30.7,5.1,30.8z M5,30.6c0,0,0-0.1,0-0.1C5,30.5,5,30.6,5,30.6z M5,30.4
		C5,30.4,5,30.4,5,30.4C5,30.4,5,30.4,5,30.4z M14,30.2C14,30.2,14,30.2,14,30.2L14,30.2C14.1,30.2,14.1,30.2,14,30.2
		c3.4,0,6.4-1.3,7.4-3c0.3-0.6,0.3-1.2,0.1-1.6c-0.1-0.2-0.3-0.3-0.4-0.3c-0.1,0-0.3,0-0.4,0.3c-1.2,1.7-3.6,2.6-6.6,2.7
		c-3,0-5.4-1-6.6-2.7c-0.2-0.2-0.3-0.3-0.4-0.3c-0.2,0-0.3,0.1-0.4,0.3c-0.2,0.4-0.2,1,0.1,1.6C7.7,28.9,10.7,30.2,14,30.2z
		 M6.7,26.9c0,0.1,0,0.1,0.1,0.2c0.1,0.1,0.1,0.2,0.2,0.3c-0.1-0.1-0.1-0.2-0.2-0.3C6.8,27,6.8,26.9,6.7,26.9z M6.6,26.6
		c0,0,0,0.1,0,0.1C6.7,26.6,6.7,26.6,6.6,26.6z M6.7,26.7c0,0,0,0.1,0,0.1C6.7,26.8,6.7,26.8,6.7,26.7z M7.2,27.6
		C7.2,27.6,7.2,27.6,7.2,27.6C7.2,27.6,7.2,27.6,7.2,27.6z M7.5,27.9C7.5,27.9,7.5,27.9,7.5,27.9C7.5,27.9,7.5,27.9,7.5,27.9z
		 M14,30C14,30,14,30,14,30C14,30,14,30,14,30c-0.1,0-0.2,0-0.3,0C13.8,30,13.9,30,14,30c0.1,0,0.2,0,0.3,0C14.3,30,14.2,30,14,30z
		 M7.8,28.2C7.8,28.2,7.8,28.2,7.8,28.2C7.8,28.2,7.8,28.2,7.8,28.2z M8.2,28.4C8.2,28.4,8.2,28.4,8.2,28.4
		C8.2,28.4,8.2,28.4,8.2,28.4z M8.5,28.7C8.6,28.7,8.6,28.7,8.5,28.7C8.6,28.7,8.6,28.7,8.5,28.7z M8.9,28.9C9,28.9,9,28.9,8.9,28.9
		C9,28.9,9,28.9,8.9,28.9z M9.4,29.1c0,0,0.1,0,0.1,0.1C9.4,29.1,9.4,29.1,9.4,29.1z M9.8,29.3c0.1,0,0.1,0,0.2,0.1
		C9.9,29.3,9.9,29.3,9.8,29.3z M10.3,29.4c0.1,0,0.1,0,0.2,0.1C10.4,29.5,10.4,29.4,10.3,29.4z M10.8,29.6c0.1,0,0.2,0,0.2,0.1
		C11,29.6,10.9,29.6,10.8,29.6z M11.3,29.7c0.1,0,0.2,0,0.3,0.1C11.5,29.7,11.4,29.7,11.3,29.7z M11.9,29.8c0.1,0,0.2,0,0.3,0.1
		C12.1,29.8,12,29.8,11.9,29.8z M12.5,29.9c0.1,0,0.2,0,0.3,0C12.7,29.9,12.6,29.9,12.5,29.9z M13.1,30c0.1,0,0.2,0,0.3,0
		C13.3,30,13.2,30,13.1,30z M20.2,26.3c0,0,0.1-0.1,0.1-0.1C20.3,26.2,20.2,26.3,20.2,26.3z M14.4,28.4c0.1,0,0.2,0,0.3,0
		C14.5,28.4,14.5,28.4,14.4,28.4z M15,28.3c0.1,0,0.2,0,0.3,0C15.1,28.3,15.1,28.3,15,28.3z M15.5,28.3c0.1,0,0.2,0,0.3,0
		C15.7,28.3,15.6,28.3,15.5,28.3z M16.1,28.2c0.1,0,0.2,0,0.2,0C16.3,28.2,16.2,28.2,16.1,28.2z M16.6,28.1c0.1,0,0.2,0,0.2,0
		C16.8,28.1,16.7,28.1,16.6,28.1z M17.1,28c0.1,0,0.1,0,0.2-0.1C17.3,27.9,17.2,28,17.1,28z M17.6,27.8c0.1,0,0.1,0,0.2-0.1
		C17.7,27.8,17.7,27.8,17.6,27.8z M18,27.7c0.1,0,0.1-0.1,0.2-0.1C18.2,27.6,18.1,27.6,18,27.7z M18.5,27.5c0.1,0,0.1-0.1,0.2-0.1
		C18.6,27.4,18.5,27.5,18.5,27.5z M18.9,27.3c0.1,0,0.1-0.1,0.2-0.1C19,27.2,18.9,27.3,18.9,27.3z M19.2,27.1c0.1,0,0.1-0.1,0.2-0.1
		C19.3,27,19.3,27,19.2,27.1z M19.6,26.8c0,0,0.1-0.1,0.1-0.1C19.7,26.8,19.6,26.8,19.6,26.8z M19.9,26.6c0,0,0.1-0.1,0.1-0.1
		C20,26.5,19.9,26.5,19.9,26.6z M20.3,28.1C20.3,28.2,20.2,28.2,20.3,28.1C20.2,28.2,20.3,28.2,20.3,28.1z M19.9,28.4
		C19.9,28.4,19.9,28.4,19.9,28.4C19.9,28.4,19.9,28.4,19.9,28.4z M19.6,28.6C19.5,28.7,19.5,28.7,19.6,28.6
		C19.5,28.7,19.5,28.7,19.6,28.6z M19.2,28.9c0,0-0.1,0-0.1,0.1C19.1,28.9,19.1,28.9,19.2,28.9z M18.7,29.1c0,0-0.1,0-0.1,0.1
		C18.6,29.1,18.7,29.1,18.7,29.1z M18.3,29.3c-0.1,0-0.1,0-0.2,0.1C18.1,29.3,18.2,29.3,18.3,29.3z M17.8,29.4c-0.1,0-0.1,0-0.2,0.1
		C17.6,29.5,17.7,29.4,17.8,29.4z M17.3,29.6c-0.1,0-0.2,0-0.2,0.1C17.1,29.6,17.2,29.6,17.3,29.6z M16.7,29.7c-0.1,0-0.2,0-0.3,0.1
		C16.6,29.7,16.6,29.7,16.7,29.7z M16.2,29.8c-0.1,0-0.2,0-0.3,0C16,29.8,16.1,29.8,16.2,29.8z M15.6,29.9c-0.1,0-0.2,0-0.3,0
		C15.4,29.9,15.5,29.9,15.6,29.9z M15,30c-0.1,0-0.2,0-0.3,0C14.8,30,14.9,30,15,30z M20.5,27.9C20.6,27.9,20.6,27.9,20.5,27.9
		C20.6,27.9,20.6,27.9,20.5,27.9z M21.1,27.4c0.1-0.1,0.1-0.2,0.2-0.3c0-0.1,0.1-0.1,0.1-0.2c0,0.1,0,0.1-0.1,0.2
		C21.2,27.2,21.1,27.3,21.1,27.4z M20.8,27.6C20.8,27.6,20.9,27.6,20.8,27.6C20.9,27.6,20.8,27.6,20.8,27.6z M21.4,26.7
		c0,0,0-0.1,0-0.1C21.4,26.6,21.4,26.6,21.4,26.7z M21.3,26.8c0,0,0-0.1,0-0.1C21.4,26.8,21.4,26.8,21.3,26.8z M21.5,26.3
		c0,0,0-0.1,0-0.1C21.5,26.3,21.5,26.3,21.5,26.3z M21.4,26.5c0-0.1,0-0.1,0-0.2C21.4,26.4,21.4,26.5,21.4,26.5z M21.4,25.9
		c0,0,0-0.1,0-0.1C21.4,25.8,21.4,25.8,21.4,25.9z M21.5,26.2c0,0,0-0.1,0-0.1C21.4,26.1,21.5,26.1,21.5,26.2z M21.4,26
		C21.4,26,21.4,25.9,21.4,26C21.4,25.9,21.4,26,21.4,26z M21.3,25.6C21.3,25.6,21.3,25.6,21.3,25.6C21.3,25.6,21.3,25.6,21.3,25.6z
		 M21.3,25.7C21.3,25.7,21.4,25.7,21.3,25.7C21.4,25.7,21.3,25.7,21.3,25.7z M21.2,25.5C21.2,25.5,21.2,25.5,21.2,25.5
		C21.2,25.5,21.2,25.5,21.2,25.5z M21.1,25.4C21.1,25.4,21.1,25.4,21.1,25.4C21,25.4,21,25.4,21.1,25.4
		C21.1,25.4,21.1,25.4,21.1,25.4z M21.2,25.5C21.2,25.5,21.1,25.5,21.2,25.5C21.1,25.5,21.2,25.5,21.2,25.5z M21,25.4
		C21,25.4,21,25.5,21,25.4C21,25.4,21,25.4,21,25.4z M20.9,25.5C20.9,25.5,20.9,25.5,20.9,25.5C20.9,25.5,20.9,25.5,20.9,25.5z
		 M20.8,25.5C20.8,25.6,20.8,25.6,20.8,25.5C20.8,25.6,20.8,25.6,20.8,25.5z M20.5,26C20.5,26,20.5,26,20.5,26
		C20.5,26,20.5,26,20.5,26z M8,26.4c-0.1-0.1-0.1-0.1-0.2-0.2C7.8,26.3,7.9,26.3,8,26.4z M13.7,28.4c-0.1,0-0.2,0-0.3,0
		C13.5,28.4,13.6,28.4,13.7,28.4z M13.1,28.3c-0.1,0-0.2,0-0.3,0C12.9,28.3,13,28.3,13.1,28.3z M12.5,28.3c-0.1,0-0.2,0-0.2,0
		C12.4,28.3,12.4,28.3,12.5,28.3z M12,28.2c-0.1,0-0.2,0-0.2,0C11.8,28.2,11.9,28.2,12,28.2z M11.4,28.1c-0.1,0-0.1,0-0.2,0
		C11.3,28.1,11.4,28.1,11.4,28.1z M10.9,28c-0.1,0-0.1,0-0.2-0.1C10.8,27.9,10.9,28,10.9,28z M10.5,27.8c-0.1,0-0.1,0-0.2-0.1
		C10.3,27.8,10.4,27.8,10.5,27.8z M10,27.7c-0.1,0-0.1-0.1-0.2-0.1C9.9,27.6,10,27.6,10,27.7z M9.6,27.5c-0.1,0-0.1-0.1-0.2-0.1
		C9.5,27.4,9.6,27.5,9.6,27.5z M9.2,27.3c-0.1,0-0.1-0.1-0.2-0.1C9.1,27.2,9.2,27.3,9.2,27.3z M8.9,27.1c-0.1,0-0.1-0.1-0.2-0.1
		C8.7,27,8.8,27.1,8.9,27.1z M8.6,26.9c-0.1,0-0.1-0.1-0.2-0.1C8.4,26.8,8.5,26.8,8.6,26.9z M8.2,26.6c-0.1-0.1-0.1-0.1-0.2-0.2
		C8.1,26.5,8.2,26.6,8.2,26.6z M7.7,26.1c-0.1-0.1-0.1-0.1-0.2-0.2C7.6,26,7.7,26.1,7.7,26.1z M7.3,25.6C7.3,25.6,7.3,25.6,7.3,25.6
		C7.3,25.6,7.3,25.6,7.3,25.6z M7.2,25.5C7.2,25.5,7.2,25.5,7.2,25.5C7.2,25.5,7.2,25.5,7.2,25.5z M7.1,25.5
		C7.1,25.4,7.1,25.4,7.1,25.5C7.1,25.4,7.1,25.4,7.1,25.5z M7,25.4C7,25.4,7,25.4,7,25.4C7,25.4,7,25.4,7,25.4C7,25.4,7,25.4,7,25.4
		z M6.9,25.5C6.9,25.5,6.8,25.5,6.9,25.5C6.8,25.5,6.9,25.5,6.9,25.5z M7,25.4C6.9,25.5,6.9,25.5,7,25.4C6.9,25.5,6.9,25.5,7,25.4z
		 M6.7,25.8c0,0,0,0.1,0,0.1C6.7,25.8,6.7,25.8,6.7,25.8z M6.8,25.6C6.8,25.6,6.8,25.6,6.8,25.6C6.8,25.6,6.8,25.6,6.8,25.6z
		 M6.7,25.7C6.7,25.7,6.7,25.7,6.7,25.7C6.7,25.7,6.7,25.7,6.7,25.7z M6.6,25.9C6.6,25.9,6.6,26,6.6,25.9C6.6,26,6.6,25.9,6.6,25.9z
		 M6.6,26.1C6.6,26.1,6.6,26.1,6.6,26.1C6.6,26.1,6.6,26.1,6.6,26.1z M6.6,26.2c0,0,0,0.1,0,0.1C6.6,26.3,6.6,26.3,6.6,26.2z
		 M6.6,26.5c0-0.1,0-0.1,0-0.2C6.6,26.4,6.6,26.5,6.6,26.5z M36.2,35L36.2,35c0.5-1,1.7-2,3.6-2c3.2,0,4.4,2.3,4.4,4.7v7.5h-3v-6
		c0-1.3-0.1-3.5-2.2-3.5c-2,0-2.7,1.4-2.7,3v6.5h-3V26.4h3V35z M46.3,33.3h3v11.9h-3V33.3z M50.5,33.3h3.3l3.2,8.4H57l3.2-8.4h3.1
		l-4.7,11.9h-3.2L50.5,33.3z M65.9,40.3c0.2,1.8,1.5,2.8,3.2,2.8c1.5,0,2.5-0.7,3.2-1.6l2.1,1.6c-1.4,1.7-3.2,2.4-5,2.4
		c-3.6,0-6.5-2.5-6.5-6.3c0-3.8,2.9-6.3,6.5-6.3c3.3,0,5.6,2.3,5.6,6.5v0.8H65.9z M72,38.1c0-1.7-1.2-2.8-3-2.8
		c-1.8,0-2.9,1.1-3.1,2.8H72z"/>
</g>
</svg>
