<?xml version="1.0" encoding="utf-8"?>
<!-- Svg Vector Icons : http://www.onlinewebfonts.com/icon -->
<!DOCTYPE svg PUBLIC "-//W3C//DTD SVG 1.1//EN" "http://www.w3.org/Graphics/SVG/1.1/DTD/svg11.dtd">
<svg version="1.1" xmlns="http://www.w3.org/2000/svg" xmlns:xlink="http://www.w3.org/1999/xlink" x="0px" y="0px" viewBox="0 0 1000 1000" enable-background="new 0 0 1000 1000" xml:space="preserve">
<metadata> Svg Vector Icons : http://www.onlinewebfonts.com/icon </metadata>
<g><path d="M433.2,519.3h64.6l-34.1-55.6l-62.8,100.4h-28.7L448.4,444c3.6-4.5,9-8.1,15.2-8.1c5.4,0,10.8,3.6,14.3,8.1l77.1,120.1h-28.7L513,541.7h-66.4L433.2,519.3L433.2,519.3z M730,541.7v-104h-24.2v113.9c0,3.6,0.9,6.3,3.6,9c1.8,1.8,5.4,3.6,9,3.6h110.3l14.3-22.4H730L730,541.7z M328.3,522.9c23.3,0,43-18.8,43-43c0-23.3-19.7-42.1-43-42.1H222.5v126.4h24.2v-104h79.8c11.7,0,20.6,9,20.6,19.7c0,11.7-9,20.6-20.6,20.6h-68.1l72.6,63.7h35l-48.4-41.2L328.3,522.9L328.3,522.9z M72.8,564.1c-35,0-62.8-28.7-62.8-63.7c0-35,27.8-62.8,62.8-62.8h73.5c35,0,62.8,27.8,62.8,62.8c0,35-27.8,63.7-62.8,63.7H72.8L72.8,564.1z M144.5,541.7c22.4,0,41.2-18.8,41.2-41.2c0-22.4-18.8-40.3-41.2-40.3H74.6c-22.4,0-41.2,17.9-41.2,40.3c0,22.4,18.8,41.2,41.2,41.2H144.5L144.5,541.7z M605.4,564.1c-35,0-62.8-28.7-62.8-63.7c0-35,27.8-62.8,62.8-62.8h87L678,460.1h-70.8c-22.4,0-41.2,17.9-41.2,40.3c0,22.4,18.8,41.2,41.2,41.2h87l-13.4,22.4H605.4L605.4,564.1z M902.1,541.7c-18.8,0-34.1-12.6-39.5-29.6h104l14.3-22.4H862.7c5.4-17,20.6-29.6,39.5-29.6h71.7l14.3-22.4h-87.9c-34.1,0-62.8,27.8-62.8,62.8c0,35,28.7,63.7,62.8,63.7h75.3l14.3-22.4H902.1L902.1,541.7z"/></g>
</svg>